<svg xmlns="http://www.w3.org/2000/svg" width="24" height="24" fill="currentColor" viewBox="0 0 24 24">
  <path fill-rule="evenodd" d="M10.651 1.25h-.094c-.888 0-1.461 0-2.009.131a4.75 4.75 0 00-1.373.569c-.48.294-.885.7-1.514 1.328l-.066.066-2.25 2.251-.067.066C2.65 6.29 2.244 6.695 1.95 7.175a4.75 4.75 0 00-.569 1.373c-.131.548-.131 1.12-.13 2.01v2.885c-.001.888-.001 1.461.13 2.009.117.485.309.948.569 1.373.294.48.7.885 1.328 1.514l.066.066 2.251 2.25.066.067c.629.629 1.034 1.034 1.514 1.328.425.26.888.452 1.373.569.548.131 1.12.131 2.01.131h2.885c.889 0 1.461 0 2.01-.131a4.75 4.75 0 001.372-.569c.48-.294.885-.7 1.514-1.328l.066-.066 2.25-2.251.067-.066c.629-.629 1.034-1.034 1.328-1.514a4.75 4.75 0 00.569-1.373c.131-.548.131-1.12.131-2.01v-2.885c0-.888 0-1.461-.131-2.009a4.75 4.75 0 00-.569-1.373c-.294-.48-.7-.885-1.328-1.514l-.066-.066-2.251-2.25-.066-.067c-.629-.629-1.034-1.034-1.514-1.328a4.75 4.75 0 00-1.373-.569c-.548-.131-1.12-.131-2.01-.131h-2.791zM8.898 2.84c.354-.085.739-.09 1.753-.09h2.698c1.014 0 1.399.005 1.753.09.332.08.649.21.94.389.31.19.585.459 1.302 1.176l2.251 2.25c.717.718.986.993 1.176 1.304.178.29.31.608.39.94.084.353.09.738.09 1.752v2.698c0 1.014-.006 1.399-.09 1.753-.08.332-.212.649-.39.94-.19.31-.459.585-1.176 1.302l-2.25 2.251c-.718.717-.993.986-1.304 1.176a3.25 3.25 0 01-.94.39c-.353.084-.738.089-1.752.089h-2.698c-1.014 0-1.399-.005-1.753-.09a3.25 3.25 0 01-.94-.389c-.31-.19-.585-.459-1.302-1.176l-2.251-2.25c-.717-.718-.986-.993-1.176-1.304a3.25 3.25 0 01-.39-.94c-.084-.353-.089-.738-.089-1.752v-2.698c0-1.014.005-1.399.09-1.753.08-.331.21-.648.389-.94.19-.31.459-.585 1.176-1.302l2.25-2.251c.718-.717.993-.986 1.304-1.176.29-.178.608-.31.94-.39zm.632 5.63a.75.75 0 10-1.06 1.06L10.94 12l-2.47 2.47a.75.75 0 101.06 1.06L12 13.06l2.47 2.47a.75.75 0 001.06-1.06L13.06 12l2.47-2.47a.75.75 0 10-1.06-1.06L12 10.94 9.53 8.47z"/>
</svg>
