<svg xmlns="http://www.w3.org/2000/svg" width="24" height="24" fill="currentColor" viewBox="0 0 24 24" transform="scale(0.7)">
  <path fill-rule="evenodd" d="M12.75 2a.75.75 0 00-1.5 0v1.25H9.487a4.237 4.237 0 00-1.34 8.256l3.103 1.035v6.709H10A3.25 3.25 0 016.75 16a.75.75 0 00-1.5 0A4.75 4.75 0 0010 20.75h1.25V22a.75.75 0 001.5 0v-1.25h1.763a4.237 4.237 0 001.34-8.256l-3.103-1.035V4.75H14A3.25 3.25 0 0117.25 8a.75.75 0 001.5 0A4.75 4.75 0 0014 3.25h-1.25V2zm-1.5 2.75H9.487a2.737 2.737 0 00-.866 5.333l2.629.876V4.75zm1.5 8.29v6.21h1.763a2.737 2.737 0 00.866-5.333l-2.629-.876z"/>
</svg>
