<svg xmlns="http://www.w3.org/2000/svg" width="24" height="24" fill="currentColor" viewBox="0 0 24 24">
  <path fill-rule="evenodd" d="M12 1.25a5.75 5.75 0 00-.75 11.451V18a.75.75 0 001.5 0v-5.299A5.751 5.751 0 0012 1.25zM7.154 14.734a.75.75 0 10-.308-1.468c-1.712.359-3.082.924-4.041 1.67-.97.754-1.555 1.727-1.555 2.845 0 .84.407 1.575 1.006 2.173.597.595 1.422 1.096 2.381 1.501C6.56 22.266 9.163 22.75 12 22.75c2.837 0 5.44-.484 7.363-1.295.96-.405 1.784-.906 2.38-1.501.6-.598 1.007-1.333 1.007-2.173 0-1.118-.585-2.09-1.555-2.845-.96-.746-2.33-1.311-4.041-1.67a.75.75 0 10-.308 1.468c1.58.332 2.711.828 3.428 1.386.707.55.976 1.122.976 1.66 0 .325-.153.7-.566 1.112-.415.415-1.055.823-1.905 1.181-1.696.716-4.093 1.177-6.779 1.177s-5.083-.46-6.78-1.177c-.85-.358-1.489-.766-1.904-1.18-.413-.413-.566-.788-.566-1.112 0-.54.269-1.111.976-1.66.717-.559 1.847-1.055 3.428-1.387z"/>
</svg>
