<svg xmlns="http://www.w3.org/2000/svg" width="24" height="24" fill="currentColor" viewBox="0 0 24 24">
  <path fill-rule="evenodd" d="M10.75 8a1.25 1.25 0 112.5 0 1.25 1.25 0 01-2.5 0zM12 5.25a2.75 2.75 0 100 5.5 2.75 2.75 0 000-5.5zM4.488 17.701a.75.75 0 10-.532-1.402c-.737.28-1.38.616-1.852 1.018-.469.4-.854.94-.854 1.613 0 .78.512 1.379 1.095 1.802.6.435 1.419.796 2.364 1.086 1.899.583 4.476.932 7.291.932 2.815 0 5.392-.35 7.291-.932.945-.29 1.764-.651 2.364-1.086.582-.423 1.095-1.023 1.095-1.802 0-.673-.385-1.213-.854-1.613-.472-.402-1.115-.739-1.852-1.018a.75.75 0 10-.532 1.402c.653.248 1.12.51 1.412.758.295.252.326.413.326.47 0 .07-.047.277-.476.589-.413.3-1.058.6-1.923.866-1.72.528-4.143.866-6.851.866s-5.13-.338-6.851-.866c-.865-.266-1.51-.567-1.923-.866-.429-.312-.476-.52-.476-.588 0-.058.031-.22.326-.47.291-.248.76-.511 1.412-.759z" opacity=".4"/>
  <path fill-rule="evenodd" d="M12 2.75c-3.512 0-6.25 2.5-6.25 6.05 0 2.903 1.252 5.018 2.69 6.418a9.01 9.01 0 002.15 1.56c.69.352 1.197.472 1.41.472.213 0 .72-.12 1.41-.472a9.01 9.01 0 002.15-1.56c1.438-1.4 2.69-3.515 2.69-6.418 0-3.55-2.738-6.05-6.25-6.05zM4.25 8.8c0-4.45 3.484-7.55 7.75-7.55s7.75 3.1 7.75 7.55c0 3.378-1.47 5.863-3.143 7.493a10.507 10.507 0 01-2.516 1.821c-.768.392-1.527.636-2.091.636-.564 0-1.323-.244-2.09-.636a10.505 10.505 0 01-2.517-1.821C5.72 14.663 4.25 12.178 4.25 8.8z"/>
</svg>
