<svg xmlns="http://www.w3.org/2000/svg" width="32" height="32" fill="#6741d9" viewBox="0 0 32 32">
  <path stroke="black" stroke-width=".5"  transform="scale(1.3)" fill-rule="evenodd" d="M4.25 8.8c0-4.45 3.484-7.55 7.75-7.55s7.75 3.1 7.75 7.55c0 3.378-1.47 5.863-3.143 7.493a10.507 10.507 0 01-2.516 1.821c-.768.392-1.527.636-2.091.636-.564 0-1.323-.244-2.09-.636a10.505 10.505 0 01-2.517-1.821C5.72 14.663 4.25 12.178 4.25 8.8zm.238 8.901a.75.75 0 10-.532-1.402c-.737.28-1.38.616-1.852 1.018-.469.4-.854.94-.854 1.613 0 .78.512 1.379 1.095 1.802.6.435 1.419.796 2.364 1.086 1.899.583 4.476.932 7.291.932 2.815 0 5.392-.35 7.291-.932.945-.29 1.764-.651 2.364-1.086.582-.423 1.095-1.023 1.095-1.802 0-.673-.385-1.213-.854-1.613-.472-.402-1.115-.739-1.852-1.018a.75.75 0 10-.532 1.402c.653.248 1.12.51 1.412.758.295.252.326.413.326.47 0 .07-.047.277-.476.589-.413.3-1.058.6-1.923.866-1.72.528-4.143.866-6.851.866s-5.13-.338-6.851-.866c-.865-.266-1.51-.567-1.923-.866-.429-.312-.476-.52-.476-.588 0-.058.031-.22.326-.47.291-.248.76-.511 1.412-.759zM12 10a2 2 0 100-4 2 2 0 000 4z"/>
</svg>
