<svg xmlns="http://www.w3.org/2000/svg" width="24" height="24" fill="currentColor" viewBox="0 0 24 24">
  <path fill-rule="evenodd" d="M12 2C8.111 2 5 4.8 5 8.8c0 6.282 5.444 9.2 7 9.2s7-2.918 7-9.2c0-4-3.111-6.8-7-6.8zm0 8a2 2 0 100-4 2 2 0 000 4z" opacity=".12"/>
  <path fill-rule="evenodd" d="M5.75 8.8c0-3.55 2.738-6.05 6.25-6.05s6.25 2.5 6.25 6.05c0 2.903-1.252 5.018-2.69 6.418a9.01 9.01 0 01-2.15 1.56c-.69.352-1.197.472-1.41.472-.213 0-.72-.12-1.41-.472a9.01 9.01 0 01-2.15-1.56c-1.438-1.4-2.69-3.515-2.69-6.418zM12 1.25c-4.266 0-7.75 3.1-7.75 7.55 0 3.378 1.47 5.863 3.143 7.493a10.505 10.505 0 002.516 1.821c.768.392 1.527.636 2.091.636.564 0 1.323-.244 2.09-.636a10.507 10.507 0 002.517-1.821c1.673-1.63 3.143-4.115 3.143-7.493 0-4.45-3.484-7.55-7.75-7.55zm0 5.5a1.25 1.25 0 100 2.5 1.25 1.25 0 000-2.5zM9.25 8a2.75 2.75 0 115.5 0 2.75 2.75 0 01-5.5 0zm-4.327 8.734a.75.75 0 01-.435.967c-.653.248-1.12.51-1.412.758-.295.252-.326.413-.326.47 0 .07.047.277.476.589.413.3 1.058.6 1.923.866 1.72.528 4.143.866 6.851.866s5.13-.338 6.85-.866c.866-.266 1.511-.567 1.924-.866.429-.312.476-.52.476-.588 0-.058-.031-.22-.326-.47-.291-.248-.76-.511-1.412-.759a.75.75 0 11.532-1.402c.737.28 1.38.616 1.852 1.018.469.4.854.94.854 1.613 0 .78-.512 1.379-1.095 1.802-.6.435-1.419.796-2.364 1.086-1.899.583-4.476.932-7.291.932-2.815 0-5.392-.35-7.291-.932-.945-.29-1.764-.651-2.364-1.086-.583-.423-1.095-1.023-1.095-1.802 0-.673.385-1.213.854-1.613.472-.402 1.115-.739 1.852-1.018a.75.75 0 01.967.435z"/>
</svg>
